# xmcd
#
# Track frame offsets: 
#        150
#        21482
#        38250
#        56517
#        79410
#        104640
#        120855
#        145082
#        159400
#        176980
#
# Disc length: 2567 seconds
#
# Revision: 0
# Processed by: cddbd v1.5.2PL0 Copyright (c) Steve Scherf et al.
# Submitted via: ExactAudioCopy v1.0b4
#
DISCID=7e0a050a
DTITLE=Sallie Foster - Daval Street
DYEAR=1900
DGENRE=Country
TTITLE0=I'm About To Find Me A Man
TTITLE1=Useless Girl
TTITLE2=Jump Into My Fire
TTITLE3=Someone Besides Myself
TTITLE4=What About The Children
TTITLE5=Back To Key West
TTITLE6=Tonight We Belong In Love
TTITLE7=Duval Crawl
TTITLE8=Absense
TTITLE9=Friend
EXTD=
EXTT0=
EXTT1=
EXTT2=
EXTT3=
EXTT4=
EXTT5=
EXTT6=
EXTT7=
EXTT8=
EXTT9=
PLAYORDER=
